<svg aria-hidden="true" style="position: absolute; width: 0; height: 0; overflow: hidden;" version="1.1" xmlns="http://www.w3.org/2000/svg" xmlns:xlink="http://www.w3.org/1999/xlink">
<defs>
<symbol id="icon-viber" viewBox="0 0 30 32">
<path  d="M26.921 3.121c-0.795-0.734-4.008-3.066-11.166-3.098 0 0-8.44-0.509-12.555 3.265-2.29 2.291-3.096 5.643-3.181 9.799s-0.195 11.944 7.313 14.056h0.007l-0.005 3.222s-0.048 1.305 0.811 1.571c1.039 0.323 1.649-0.669 2.641-1.738 0.544-0.587 1.296-1.449 1.863-2.107 5.134 0.432 9.083-0.556 9.532-0.702 1.037-0.336 6.903-1.088 7.857-8.875 0.985-8.027-0.476-13.104-3.117-15.393zM27.791 17.938c-0.805 6.502-5.563 6.911-6.441 7.192-0.373 0.12-3.841 0.983-8.203 0.698 0 0-3.25 3.921-4.265 4.94-0.158 0.159-0.345 0.224-0.469 0.192-0.175-0.043-0.223-0.25-0.221-0.552 0.003-0.432 0.028-5.355 0.028-5.355s-0.004 0 0 0c-6.351-1.763-5.981-8.392-5.909-11.863s0.724-6.315 2.661-8.227c3.48-3.152 10.65-2.681 10.65-2.681 6.054 0.026 8.956 1.85 9.628 2.46 2.234 1.913 3.372 6.489 2.54 13.194z"></path>
<path  stroke-linejoin="round" stroke-linecap="round" stroke-miterlimit="4" stroke-width="0.8096" d="M18.701 12.906q-0.118-2.381-2.419-2.501"></path>
<path  stroke-linejoin="round" stroke-linecap="round" stroke-miterlimit="4" stroke-width="0.8096" d="M20.778 13.602q0.048-2.218-1.314-3.707c-0.912-0.996-2.175-1.544-3.796-1.663"></path>
<path  stroke-linejoin="round" stroke-linecap="round" stroke-miterlimit="4" stroke-width="0.8096" d="M22.904 14.433q-0.029-3.85-2.3-6.064t-5.649-2.238"></path>
<path  d="M16.362 18.327s0.569 0.048 0.875-0.329l0.597-0.751c0.288-0.373 0.983-0.61 1.664-0.231 0.585 0.335 1.069 0.648 1.537 0.984l-0.053-0.036c0.452 0.332 1.377 1.104 1.38 1.104 0.441 0.372 0.543 0.919 0.242 1.495 0 0.003-0.002 0.009-0.002 0.012-0.344 0.59-0.757 1.095-1.237 1.526l-0.006 0.005c-0.006 0.003-0.006 0.006-0.011 0.009q-0.642 0.537-1.262 0.61c-0.043 0.008-0.093 0.012-0.144 0.012-0.014 0-0.028-0-0.042-0.001l0.002 0c-0.005 0-0.011 0-0.016 0-0.186 0-0.365-0.030-0.532-0.086l0.012 0.003-0.013-0.020c-0.637-0.18-1.7-0.629-3.47-1.606-1.111-0.61-2.064-1.248-2.958-1.958l0.042 0.032c-0.479-0.38-0.907-0.761-1.312-1.164l-0.132-0.132c-0.015-0.014-0.029-0.029-0.044-0.044-0.402-0.404-0.783-0.832-1.139-1.28l-0.024-0.031c-0.678-0.851-1.315-1.804-1.872-2.809l-0.054-0.106c-0.977-1.771-1.426-2.833-1.606-3.471l-0.020-0.013c-0.052-0.155-0.082-0.334-0.082-0.519 0-0.006 0-0.012 0-0.019v0.001c-0.001-0.013-0.001-0.029-0.001-0.044 0-0.050 0.004-0.098 0.013-0.145l-0.001 0.005q0.077-0.619 0.611-1.263c0.003-0.005 0.006-0.005 0.009-0.011 0.436-0.486 0.941-0.899 1.501-1.227l0.029-0.016c0.003 0 0.009-0.003 0.012-0.003 0.576-0.3 1.123-0.198 1.494 0.24 0.003 0.003 0.774 0.928 1.104 1.38 0.3 0.415 0.613 0.9 0.903 1.401l0.045 0.085c0.379 0.68 0.142 1.377-0.231 1.664l-0.751 0.597c-0.379 0.306-0.329 0.875-0.329 0.875s1.113 4.213 5.272 5.274z"></path>
</symbol>
<symbol id="icon-instagram" viewBox="0 0 32 32">
<path d="M16 0c-4.342 0-4.888 0.020-6.594 0.096-1.706 0.080-2.868 0.348-3.886 0.744-1.11 0.423-2.055 1.051-2.833 1.845l-0.001 0.001c-0.795 0.779-1.423 1.724-1.828 2.781l-0.018 0.053c-0.396 1.016-0.666 2.18-0.744 3.88-0.076 1.71-0.096 2.254-0.096 6.602 0 4.344 0.020 4.888 0.096 6.594 0.080 1.704 0.348 2.866 0.744 3.884 0.41 1.052 0.956 1.944 1.846 2.834 0.888 0.89 1.78 1.438 2.832 1.846 1.020 0.396 2.18 0.666 3.884 0.744 1.708 0.076 2.252 0.096 6.598 0.096s4.888-0.020 6.596-0.096c1.702-0.080 2.868-0.348 3.886-0.744 1.109-0.423 2.054-1.051 2.831-1.845l0.001-0.001c0.89-0.89 1.436-1.782 1.846-2.834 0.394-1.018 0.664-2.18 0.744-3.884 0.076-1.706 0.096-2.25 0.096-6.596s-0.020-4.89-0.096-6.598c-0.080-1.702-0.35-2.866-0.744-3.882-0.423-1.11-1.051-2.055-1.845-2.833l-0.001-0.001c-0.779-0.795-1.724-1.423-2.781-1.828l-0.053-0.018c-1.020-0.396-2.184-0.666-3.886-0.744-1.708-0.076-2.25-0.096-6.598-0.096zM14.566 2.884h1.436c4.272 0 4.778 0.014 6.464 0.092 1.56 0.070 2.408 0.332 2.972 0.55 0.746 0.29 1.28 0.638 1.84 1.198s0.906 1.092 1.196 1.84c0.22 0.562 0.48 1.41 0.55 2.97 0.078 1.686 0.094 2.192 0.094 6.462s-0.016 4.778-0.094 6.464c-0.070 1.56-0.332 2.406-0.55 2.97-0.273 0.72-0.681 1.334-1.197 1.837l-0.001 0.001c-0.56 0.56-1.092 0.906-1.84 1.196-0.56 0.22-1.408 0.48-2.97 0.552-1.686 0.076-2.192 0.094-6.464 0.094s-4.78-0.018-6.466-0.094c-1.56-0.072-2.406-0.332-2.97-0.552-0.721-0.272-1.335-0.679-1.839-1.195l-0.001-0.001c-0.518-0.504-0.927-1.119-1.189-1.806l-0.011-0.034c-0.218-0.562-0.48-1.41-0.55-2.97-0.076-1.686-0.092-2.192-0.092-6.466s0.016-4.776 0.092-6.462c0.072-1.56 0.332-2.408 0.552-2.972 0.29-0.746 0.638-1.28 1.198-1.84s1.092-0.906 1.84-1.196c0.564-0.22 1.41-0.48 2.97-0.552 1.476-0.068 2.048-0.088 5.030-0.090zM24.542 5.54c-1.060 0-1.92 0.86-1.92 1.92s0.86 1.92 1.92 1.92v0c1.060 0 1.92-0.86 1.92-1.92s-0.86-1.92-1.92-1.92v0zM16.002 7.784c-0.038-0.001-0.083-0.001-0.128-0.001-4.539 0-8.218 3.679-8.218 8.218s3.679 8.218 8.218 8.218c0.045 0 0.090-0 0.135-0.001l-0.007 0c4.483-0.072 8.090-3.723 8.090-8.217s-3.607-8.145-8.083-8.217l-0.007-0zM16.002 10.666c2.946 0 5.334 2.388 5.334 5.334s-2.388 5.334-5.334 5.334v0c-2.946 0-5.334-2.388-5.334-5.334s2.388-5.334 5.334-5.334v0z"></path>
</symbol>
<symbol id="icon-tiktok" viewBox="0 0 32 32">
<path d="M18 0h3.96c0.288 1.43 1.080 3.234 2.47 5.024 1.36 1.754 3.164 2.976 5.57 2.976v4c-3.506 0-6.14-1.628-8-3.658v13.658c0 5.523-4.477 10-10 10s-10-4.477-10-10c0-5.523 4.477-10 10-10v0 4c-3.314 0-6 2.686-6 6s2.686 6 6 6c3.314 0 6-2.686 6-6v0z"></path>
</symbol>
<symbol id="icon-tel" viewBox="0 0 32 32">
<path d="M23.61 16.391c-0.124-0.124-0.271-0.222-0.432-0.289s-0.335-0.102-0.51-0.102-0.349 0.035-0.51 0.102c-0.162 0.067-0.309 0.165-0.432 0.289l-2.125 2.125c-0.985-0.293-2.824-0.96-3.989-2.125s-1.832-3.004-2.125-3.989l2.125-2.125c0.124-0.124 0.222-0.271 0.289-0.432s0.102-0.335 0.102-0.51-0.035-0.348-0.102-0.51c-0.067-0.162-0.165-0.309-0.289-0.432l-5.333-5.333c-0.124-0.124-0.271-0.222-0.432-0.289s-0.335-0.102-0.51-0.102-0.348 0.035-0.51 0.102c-0.162 0.067-0.309 0.165-0.432 0.289l-3.616 3.616c-0.507 0.507-0.792 1.203-0.781 1.913 0.031 1.899 0.533 8.493 5.731 13.691s11.792 5.699 13.692 5.731h0.037c0.704 0 1.369-0.277 1.873-0.781l3.616-3.616c0.124-0.124 0.222-0.271 0.289-0.432s0.102-0.335 0.102-0.51-0.035-0.349-0.102-0.51c-0.067-0.162-0.165-0.309-0.289-0.432l-5.333-5.335zM23.441 25.34c-1.664-0.028-7.357-0.475-11.831-4.949-4.488-4.488-4.923-10.201-4.949-11.832l2.673-2.673 3.448 3.448-1.724 1.724c-0.157 0.157-0.272 0.35-0.335 0.562s-0.073 0.437-0.027 0.654c0.032 0.153 0.815 3.789 3.028 6.003s5.849 2.996 6.003 3.028c0.217 0.047 0.442 0.038 0.654-0.025s0.406-0.179 0.562-0.336l1.725-1.724 3.448 3.448-2.675 2.673z"></path>
</symbol>
</defs>
</svg>
